<?xml version="1.0" encoding="utf-8"?>
<!-- Generator: Adobe Illustrator 16.2.0, SVG Export Plug-In . SVG Version: 6.00 Build 0)  -->
<!DOCTYPE svg PUBLIC "-//W3C//DTD SVG 1.1//EN" "http://www.w3.org/Graphics/SVG/1.1/DTD/svg11.dtd">
<svg version="1.1" id="Комплекс" xmlns="http://www.w3.org/2000/svg" xmlns:xlink="http://www.w3.org/1999/xlink" x="0px"
	 y="0px" width="510.236px" height="453.543px" viewBox="0 0 510.236 453.543" enable-background="new 0 0 510.236 453.543"
	 xml:space="preserve">
<g>
	<path fill-rule="evenodd" clip-rule="evenodd" fill="#FFFFFF" d="M87.638,52.871c-13.129,3.174-21.354,16.888-18.373,30.611
		c2.981,13.732,16.038,22.267,29.168,19.096c13.129-3.202,21.357-16.894,18.371-30.618C113.832,58.237,100.767,49.682,87.638,52.871
		"/>
	<path fill-rule="evenodd" clip-rule="evenodd" fill="#FFFFFF" d="M50.026,90.703c-10.717,2.6-17.442,13.79-15.006,25.01
		c2.428,11.203,13.096,18.188,23.835,15.587c10.716-2.6,17.442-13.795,15.014-25.01C71.424,95.07,60.764,88.104,50.026,90.703"/>
	<path fill-rule="evenodd" clip-rule="evenodd" fill="#FFFFFF" d="M27.116,131.412c-9.135,2.211-14.865,11.738-12.786,21.28
		c2.076,9.553,11.154,15.49,20.28,13.282c9.132-2.224,14.856-11.75,12.787-21.296C45.324,135.135,36.246,129.189,27.116,131.412"/>
	<path fill-rule="evenodd" clip-rule="evenodd" fill="#FFFFFF" d="M12.595,171.292c-8.718,2.101-14.168,11.202-12.188,20.296
		c1.975,9.11,10.631,14.786,19.349,12.659c8.701-2.108,14.173-11.203,12.193-20.305C29.966,174.83,21.305,169.173,12.595,171.292"/>
	<path fill-rule="evenodd" clip-rule="evenodd" fill="#FFFFFF" d="M198.119,202.627c25.543-34.822,19.12-65.931-11.102-97.112
		c-3.194-3.272-9.833-14.614-2.63-22.187c12.484-13.118,20.036-21.264,15.497-42.201c-4.546-20.936-26.827-37.25-48.786-31.925
		c-21.966,5.329-35.733,28.254-30.75,51.209c4.623,21.287,17.192,15.948,14.443,29.9c-1.991,10.109-30.365,15.589-60.51,43.026
		c-20.469,18.638-32.494,42.714-37.508,69.289H198.119"/>
	<path fill-rule="evenodd" clip-rule="evenodd" fill="#FFFFFF" d="M158.275,333.443H58.646
		c19.169,39.679,48.352,75.32,83.277,98.269c45.004,29.556,99.056,7.493,85.007-31.65
		C214.577,365.69,175.939,362.542,158.275,333.443"/>
</g>
<g>
	<path fill="#FFFFFF" d="M235.788,369.807v-22.286h-7.547v-2.875h18.618v2.875h-7.548v22.286H235.788z"/>
	<path fill="#FFFFFF" d="M270.478,369.807h-3.523v-20.201l-12.401,20.201h-3.736v-25.161h3.521v20.204l12.402-20.204h3.737V369.807z
		"/>
	<path fill="#FFFFFF" d="M296.076,369.807h-3.524v-22.286h-11.717v22.286h-3.523v-25.161h18.764V369.807z"/>
	<path fill="#FFFFFF" d="M319.515,347.415c2.41,2.769,2.77,6.753,2.77,9.812c0,3.128-0.36,7.081-2.77,9.85
		c-1.581,1.831-3.953,3.163-7.548,3.163c-3.594,0-5.966-1.332-7.547-3.163c-2.408-2.769-2.768-6.722-2.768-9.85
		c0-3.059,0.36-7.043,2.768-9.812c1.187-1.364,3.486-3.199,7.547-3.199C316.028,344.216,318.329,346.051,319.515,347.415z
		 M318.401,355.862c0-1.835-0.142-5.179-1.834-7.082c-0.754-0.862-2.119-1.837-4.601-1.837c-2.48,0-3.845,0.975-4.6,1.837
		c-1.69,1.903-1.834,5.247-1.834,7.082v2.73c0,1.833,0.144,5.177,1.834,7.081c0.755,0.862,2.12,1.833,4.6,1.833
		c2.481,0,3.846-0.971,4.601-1.833c1.692-1.904,1.834-5.248,1.834-7.081V355.862z"/>
	<path fill="#FFFFFF" d="M342.021,344.646v2.875h-10.639v22.286h-3.524v-25.161H342.021z"/>
	<path fill="#FFFFFF" d="M354.461,344.646c2.085,0,4.458,0.254,6.362,1.69c1.832,1.364,2.588,3.381,2.588,5.142
		c0,2.011-0.756,3.916-2.157,5.213c-1.437,1.324-3.773,2.224-6.29,2.224h-5.284v10.893h-3.523v-25.161H354.461z M349.681,356.042
		h5.212c1.438,0,2.768-0.435,3.557-1.189c0.972-0.933,1.188-2.152,1.188-3.126c0-1.043-0.178-2.371-1.368-3.27
		c-0.826-0.648-2.12-0.937-3.376-0.937h-5.212V356.042z"/>
	<path fill="#FFFFFF" d="M383.832,369.807h-4.063l-2.589-6.973h-9.056l-2.48,6.973h-3.377l9.308-25.161h2.947L383.832,369.807z
		 M376.319,360.033l-2.803-7.514c-0.252-0.611-0.503-1.474-0.756-2.982h-0.143c-0.214,1.365-0.541,2.3-0.864,3.163l-2.694,7.333
		H376.319z"/>
	<path fill="#FFFFFF" d="M398.716,346.912h0.503c0.793,0,3.883,0.072,6.433,1.906c1.511,1.077,3.741,3.448,3.741,7.872
		c0,4.488-2.265,6.862-3.741,7.942c-2.55,1.832-5.64,1.903-6.433,1.903h-0.503v3.703h-3.523v-3.703h-0.502
		c-0.79,0-3.881-0.071-6.434-1.903c-1.474-1.08-3.737-3.454-3.737-7.942c0-4.424,2.227-6.795,3.737-7.872
		c2.553-1.834,5.644-1.906,6.434-1.906h0.502v-3.274h3.523V346.912z M394.583,349.641c-2.408,0-3.846,0.901-4.6,1.689
		c-1.472,1.549-1.58,4.028-1.58,5.394c0,1.366,0.108,3.847,1.58,5.394c0.754,0.791,2.192,1.688,4.6,1.688h0.61v-14.164H394.583z
		 M398.716,349.641v14.164h0.612c2.409,0,3.845-0.896,4.601-1.688c1.473-1.547,1.581-4.027,1.581-5.394
		c0-1.365-0.108-3.845-1.581-5.394c-0.756-0.788-2.192-1.689-4.601-1.689H398.716z"/>
	<path fill="#FFFFFF" d="M428.34,351.98v-0.864c0-0.933-0.142-1.94-1.079-2.84c-0.932-0.898-2.479-1.333-3.806-1.333
		c-1.764,0-3.381,0.796-4.243,1.764c-0.503,0.574-1.797,2.374-1.797,7.335v1.973c0,2.841,0.61,5.79,2.083,7.407
		c1.077,1.187,2.948,1.941,5.104,1.941c1.62,0,3.129-0.574,3.738-0.827c0.36-0.142,1.223-0.503,2.231-1.114l1.327,2.481
		c-0.788,0.502-1.58,0.896-2.658,1.329c-1.581,0.646-2.911,1.007-4.922,1.007c-3.022,0-5.785-0.754-7.91-3.235
		c-2.409-2.84-2.876-6.649-2.876-9.777c0-3.059,0.396-7.043,2.733-9.812c1.582-1.871,3.845-3.199,7.19-3.199
		c1.975,0,4.313,0.397,5.964,1.439c2.371,1.507,2.733,4.094,2.23,6.109L428.34,351.98z"/>
	<path fill="#FFFFFF" d="M440.456,355.07h3.49c2.766,0,3.45-1.546,3.953-3.125l1.293-3.921c0.395-1.225,0.896-2.731,2.408-3.411
		c0.578-0.256,1.33-0.397,2.052-0.397c0.716,0,1.578,0.178,2.012,0.284l-0.434,2.807c-0.36-0.179-0.683-0.213-1.042-0.213
		c-0.25,0-0.647,0.034-1.006,0.284c-0.756,0.54-1.004,1.868-1.292,2.663l-0.9,2.659c-0.434,1.254-1.077,3.015-3.198,3.555v0.181
		c2.515,0.537,3.412,2.442,4.024,3.847l4.062,9.524h-3.953l-3.485-8.23c-0.505-1.187-0.9-2.121-1.512-2.662
		c-0.792-0.681-2.049-0.967-3.09-0.967h-3.382v11.859h-3.521v-25.161h3.521V355.07z"/>
	<path fill="#FFFFFF" d="M479.857,369.807h-3.521v-20.201l-12.404,20.201h-3.737v-25.161h3.522v20.204l12.402-20.204h3.737V369.807z
		"/>
	<path fill="#FFFFFF" d="M506.356,369.807h-3.524v-20.201l-12.4,20.201h-3.74v-25.161h3.523v20.204l12.399-20.204h3.742V369.807z
		 M494.098,337.961c-0.145,0.685-0.074,2.119,2.408,2.119c2.479,0,2.552-1.435,2.406-2.119l2.625-0.253
		c0.143,0.358,0.215,0.684,0.215,1.149c0,1.26-0.467,2.194-1.544,2.879c-1.116,0.681-2.626,0.825-3.703,0.825
		c-1.078,0-2.587-0.145-3.702-0.825c-1.079-0.685-1.547-1.619-1.547-2.879c0-0.466,0.073-0.791,0.219-1.149L494.098,337.961z"/>
	<path fill="#FFFFFF" d="M327.967,394.806h3.486c2.768,0,3.451-1.546,3.954-3.127l1.294-3.919c0.396-1.219,0.901-2.729,2.408-3.413
		c0.578-0.253,1.332-0.396,2.05-0.396c0.719,0,1.58,0.181,2.014,0.287l-0.434,2.801c-0.359-0.178-0.682-0.211-1.041-0.211
		c-0.252,0-0.648,0.033-1.007,0.286c-0.755,0.54-1.004,1.869-1.294,2.662l-0.899,2.658c-0.431,1.256-1.077,3.017-3.197,3.559v0.178
		c2.515,0.542,3.413,2.444,4.025,3.847l4.062,9.526h-3.955l-3.488-8.235c-0.502-1.18-0.896-2.117-1.507-2.655
		c-0.792-0.685-2.05-0.97-3.092-0.97h-3.379v11.86h-3.522v-25.16h3.522V394.806z"/>
	<path fill="#FFFFFF" d="M363.807,387.152c2.408,2.765,2.769,6.755,2.769,9.813c0,3.124-0.36,7.082-2.769,9.849
		c-1.582,1.831-3.952,3.161-7.547,3.161c-3.594,0-5.967-1.33-7.548-3.161c-2.408-2.767-2.768-6.725-2.768-9.849
		c0-3.058,0.359-7.048,2.768-9.813c1.188-1.368,3.488-3.201,7.548-3.201C360.321,383.951,362.622,385.784,363.807,387.152z
		 M362.692,395.598c0-1.834-0.142-5.177-1.831-7.082c-0.754-0.861-2.12-1.833-4.601-1.833s-3.845,0.972-4.6,1.833
		c-1.689,1.905-1.835,5.248-1.835,7.082v2.731c0,1.835,0.146,5.179,1.835,7.083c0.755,0.863,2.119,1.831,4.6,1.831
		s3.847-0.968,4.601-1.831c1.689-1.904,1.831-5.248,1.831-7.083V395.598z"/>
	<path fill="#FFFFFF" d="M372.151,384.384h3.955l6.899,13.62l6.543-13.62h3.988v25.16h-3.522v-19.627l-6.578,13.337h-1.474
		l-6.578-13.337v19.627h-3.234V384.384z"/>
	<path fill="#FFFFFF" d="M419.135,409.544h-3.519v-22.283h-11.719v22.283h-3.522v-25.16h18.761V409.544z"/>
	<path fill="#FFFFFF" d="M432.08,387.261l-0.179,5.82c-0.071,2.302-0.36,6.398-0.79,8.948c-0.288,1.585-0.861,4.137-2.443,5.788
		c-1.153,1.187-2.84,1.979-5.285,2.086l-0.647-3.163c1.437-0.07,3.198-0.646,4.203-2.589c0.252-0.502,0.864-1.864,1.225-5.536
		c0.252-2.334,0.432-6.649,0.504-9.813l0.104-4.419h13.913v25.16h-3.523v-22.283H432.08z"/>
	<path fill="#FFFFFF" d="M462.567,387.261h-9.525v7.582h9.525v2.877h-9.525v8.95h10.783v2.874h-14.306v-25.16h13.048V387.261z"/>
	<path fill="#FFFFFF" d="M472.024,394.806h3.485c2.77,0,3.452-1.546,3.954-3.127l1.294-3.919c0.396-1.219,0.898-2.729,2.409-3.413
		c0.575-0.253,1.328-0.396,2.046-0.396c0.722,0,1.583,0.181,2.011,0.287l-0.428,2.801c-0.357-0.178-0.683-0.211-1.042-0.211
		c-0.249,0-0.648,0.033-1.006,0.286c-0.756,0.54-1.006,1.869-1.296,2.662l-0.898,2.658c-0.432,1.256-1.079,3.017-3.198,3.559v0.178
		c2.515,0.542,3.414,2.444,4.024,3.847l4.062,9.526h-3.952l-3.486-8.235c-0.505-1.18-0.901-2.117-1.509-2.655
		c-0.792-0.685-2.052-0.97-3.094-0.97h-3.376v11.86H468.5v-25.16h3.524V394.806z"/>
	<path fill="#FFFFFF" d="M504.594,391.714v-0.861c0-0.936-0.143-1.938-1.079-2.839c-0.935-0.899-2.48-1.331-3.811-1.331
		c-1.76,0-3.377,0.791-4.241,1.758c-0.502,0.58-1.796,2.375-1.796,7.339v1.974c0,2.843,0.612,5.786,2.084,7.403
		c1.08,1.189,2.949,1.941,5.105,1.941c1.62,0,3.129-0.574,3.738-0.822c0.359-0.145,1.22-0.504,2.229-1.119l1.329,2.48
		c-0.792,0.504-1.58,0.9-2.659,1.334c-1.584,0.646-2.913,1.004-4.924,1.004c-3.019,0-5.788-0.753-7.909-3.234
		c-2.409-2.839-2.876-6.651-2.876-9.775c0-3.058,0.4-7.048,2.733-9.813c1.581-1.871,3.845-3.201,7.188-3.201
		c1.979,0,4.314,0.396,5.97,1.437c2.37,1.511,2.729,4.101,2.229,6.113L504.594,391.714z"/>
</g>
<g>
	<path fill-rule="evenodd" clip-rule="evenodd" fill="#FFFFFF" d="M83.28,213.91h-5.186H36.996v13.112h19.883v79.413h-5.958v13.237
		h27.234h6.042c25.448,0,51.582-12.681,51.241-52.021C135.094,228.288,107.168,213.91,83.28,213.91z M84.197,306.436h-6.441v-79.413
		h5.524c16.422,0,31.243,13.865,31.036,38.288C114.114,289.731,101.186,306.436,84.197,306.436z"/>
	<path fill-rule="evenodd" clip-rule="evenodd" fill="#FFFFFF" d="M146.875,229.848h11.053v73.731h-11.053v15.907h16.129h11.048
		h26.547h7.185h1.745v-33.19h-8.93c0,0-0.527,11.494-7.89,16.219c-4.201,2.691-9.683,3.549-13.613,3.775h-4.543v-32.459h12.397v7.55
		h11.068V248.62h-11.068v8.473h-12.397v-29.941h0.659h4.118c4.129,0.096,10.399,1.215,14.221,4.192
		c4.252,3.31,5.148,7.986,5.305,10.49v1.736v0.194h8.927v-16.613v-10.016v-3.185h-37.038h-7.742h-16.129V229.848z"/>
	<path fill-rule="evenodd" clip-rule="evenodd" fill="#FFFFFF" d="M291.193,260.568c5.014-1.359,21.374-3.918,21.032-25.608
		c-0.339-21.671-28.283-21.072-44.817-21.057l-8.801,0.007h-13.264v0.041h-19.458v15.896h10.786v76.588h-8.492v13.237h8.492h21.937
		h8.663h18.971c5.037,0,26.334-2.005,28.664-22.976C317.232,275.738,306.485,264.7,291.193,260.568z M258.608,227.366
		c10.956,0,31.413-2.426,31.73,12.26c0.272,12.575-14.173,12.7-23.067,12.7h-8.663V227.366z M267.271,306.436h-8.397h-0.265v-39.471
		h8.663c10.717,0,23.923,1.764,24.61,19.875C292.571,304.945,277.634,306.436,267.271,306.436z"/>
	<polygon fill-rule="evenodd" clip-rule="evenodd" fill="#FFFFFF" points="330.897,231.796 339.873,231.796 339.873,302.428 
		330.897,302.428 330.897,319.673 369.506,319.673 369.506,302.428 361.248,302.428 392.991,248.893 392.991,302.428 
		384.032,302.428 384.032,319.673 422.638,319.673 422.638,302.428 412.687,302.428 412.687,231.796 422.638,231.796 
		422.638,213.91 384.032,213.91 384.032,231.796 359.563,272.036 359.563,231.796 369.506,231.796 369.506,213.91 330.897,213.91 	
		"/>
	<path fill-rule="evenodd" clip-rule="evenodd" fill="#FFFFFF" d="M442.653,246.418h15.413V235.45
		c17.271-10.317,29.097-5.777,30.222,4.807c1.143,10.585-6.756,16.873-16.832,16.873h-3.298v-5.642h-15.929v30.344h15.929v-11.185
		h3.298c13.626,0,20.484,6.634,20.021,17.989c-0.64,15.545-20.51,15.755-34.454,9.521v-6.156H441.62v29.78h15.403v-7.199
		c34.153,11.38,52.175-8.419,53.129-23.941c0.954-15.505-6.339-23.848-19.204-27.898c5.111-2.778,18.871-10.894,16.158-29.73
		c-2.701-18.814-30.341-24.306-49.041-14.237v-2.136h-15.413V246.418z"/>
</g>
</svg>
